<svg width="27" height="30" viewBox="0 0 27 30" fill="none" xmlns="http://www.w3.org/2000/svg">
<path d="M0 15H27" stroke="#898989" stroke-width="2"/>
<path d="M23 15.5C23 16.8807 21.8807 18 20.5 18C19.1193 18 18 16.8807 18 15.5C18 14.1193 19.1193 13 20.5 13C21.8807 13 23 14.1193 23 15.5Z" fill="white" stroke="#898989" stroke-width="2"/>
<path d="M0 3.5H27" stroke="#898989" stroke-width="2"/>
<path d="M0 26.5H27" stroke="#898989" stroke-width="2"/>
<path d="M11 3.5C11 4.88071 9.88071 6 8.5 6C7.11929 6 6 4.88071 6 3.5C6 2.11929 7.11929 1 8.5 1C9.88071 1 11 2.11929 11 3.5Z" fill="white" stroke="#898989" stroke-width="2"/>
<path d="M14 26.5C14 27.8807 12.8807 29 11.5 29C10.1193 29 9 27.8807 9 26.5C9 25.1193 10.1193 24 11.5 24C12.8807 24 14 25.1193 14 26.5Z" fill="white" stroke="#898989" stroke-width="2"/>
</svg>
