<svg width="19" height="18" viewBox="0 0 19 18" fill="none" xmlns="http://www.w3.org/2000/svg">
<path d="M13.775 0C12.122 0 10.5355 0.794551 9.5 2.05014C8.4645 0.794551 6.878 0 5.225 0C2.299 0 0 2.37384 0 5.3951C0 9.103 3.23 12.1243 8.1225 16.715L9.5 18L10.8775 16.7052C15.77 12.1243 19 9.103 19 5.3951C19 2.37384 16.701 0 13.775 0ZM9.595 15.2534L9.5 15.3515L9.405 15.2534C4.883 11.0256 1.9 8.22997 1.9 5.3951C1.9 3.43324 3.325 1.96185 5.225 1.96185C6.688 1.96185 8.113 2.93297 8.6165 4.27684H10.393C10.887 2.93297 12.312 1.96185 13.775 1.96185C15.675 1.96185 17.1 3.43324 17.1 5.3951C17.1 8.22997 14.117 11.0256 9.595 15.2534Z" fill="#EDAC00"/>
</svg>
