<svg width="173" height="90" viewBox="0 0 173 90" fill="none" xmlns="http://www.w3.org/2000/svg">
<g filter="url(#filter0_d_358:445)">
<path d="M2.41443 38.4445L8.64983 47.9146H9.62661L15.8559 38.3219V51.1755H17.92V33.216H16.8142L9.18429 45.1379L1.46223 33.216H0.356445V51.1755H2.41443V38.4445Z" fill="white"/>
<path d="M34.1565 49.2018H23.9525V43.3174H32.1169V41.3499H23.9525V35.3368H33.6404V33.3692H21.8945V51.1755H34.1565V49.2018Z" fill="white"/>
<path d="M39.2064 37.4882L50.8847 51.3778H51.9352V33.3692H49.8773V47.0564L38.2051 33.1424H37.1484V51.1755H39.2064V37.4882Z" fill="white"/>
<path d="M62.7528 51.4758C65.1917 51.4758 66.9855 50.8629 68.1343 49.6431C69.2893 48.4233 69.8606 46.5845 69.8606 44.1265V33.3692H67.8026V43.6729C67.8026 45.6773 67.4094 47.1423 66.6231 48.0678C65.8367 48.9934 64.5467 49.4592 62.7467 49.4592C60.9467 49.4592 59.6566 48.9995 58.8703 48.0678C58.084 47.1423 57.6908 45.6773 57.6908 43.6729V33.3692H55.6328V44.1265C55.6328 46.5845 56.2103 48.4233 57.3591 49.6431C58.5201 50.869 60.3201 51.4758 62.7528 51.4758Z" fill="white"/>
<path d="M87.8483 51.4758C90.5943 51.4758 92.8059 50.6177 94.483 48.9014C96.1601 47.1852 96.9956 44.9785 96.9956 42.2815C96.9956 39.4865 96.1356 37.2492 94.4093 35.5758C92.683 33.9025 90.4961 33.0627 87.8483 33.0627C85.1023 33.0627 82.8907 33.9208 81.2259 35.6371C79.5611 37.3534 78.7256 39.5662 78.7256 42.2815C78.7256 45.0766 79.5856 47.3078 81.2996 48.975C83.0136 50.6422 85.1944 51.4758 87.8483 51.4758ZM82.8416 37.0163C84.1685 35.6923 85.8333 35.0364 87.8483 35.0364C89.9432 35.0364 91.6326 35.7168 92.9226 37.0714C94.2127 38.4261 94.8578 40.1668 94.8578 42.2877C94.8578 44.4759 94.1943 46.229 92.8735 47.5407C91.5527 48.8524 89.8756 49.5083 87.8483 49.5083C85.7535 49.5083 84.0641 48.8279 82.7801 47.4733C81.4962 46.1186 80.8573 44.3901 80.8573 42.2815C80.8573 40.0933 81.5146 38.3402 82.8416 37.0163Z" fill="white"/>
<path d="M102.193 37.4882L113.871 51.3778H114.922V33.3692H112.864V47.0564L101.191 33.1424H100.135V51.1755H102.193V37.4882Z" fill="white"/>
<path d="M135.895 46.8787L137.781 51.1694H140.035L132.184 33.1853H130.955L123.129 51.1694H125.383L127.245 46.8787H135.895ZM129.985 40.363L131.576 36.5259L133.173 40.363L135.01 44.9111H128.166L129.985 40.363Z" fill="white"/>
<path d="M144.502 33.3692H142.37V51.1755H144.502V33.3692Z" fill="white"/>
<path d="M161.746 39.3823C161.746 37.427 161.205 35.9375 160.124 34.9138C159.043 33.8902 157.464 33.3753 155.387 33.3753H148.568V51.1816H150.626V45.4505H154.724C155.178 45.4505 155.516 45.4444 155.731 45.426L159.755 51.1816H162.28L157.961 44.9969C160.486 44.1449 161.746 42.2754 161.746 39.3823ZM158.275 42.4103C157.415 43.1152 156.18 43.4707 154.558 43.4707H150.632V35.3368H155.099C156.555 35.3368 157.66 35.68 158.422 36.3604C159.184 37.0408 159.565 38.046 159.565 39.3762C159.565 40.694 159.135 41.7054 158.275 42.4103Z" fill="white"/>
<path d="M6.42614 76.7112C5.14834 76.7112 4.1347 77.0912 3.39137 77.8451V73.1376H1.38867V86.5858H3.37294V85.5745C4.04256 86.3774 5.03162 86.782 6.34013 86.782C7.7285 86.782 8.84043 86.3284 9.67591 85.4151C10.5114 84.5018 10.923 83.2759 10.923 81.7374C10.923 80.1989 10.5114 78.973 9.68206 78.0658C8.85886 77.1647 7.77151 76.7112 6.42614 76.7112ZM8.02952 84.0666C7.51349 84.6366 6.81316 84.9186 5.94082 84.9186C5.4125 84.9186 4.9149 84.8021 4.45415 84.5631C3.99341 84.324 3.63096 83.9685 3.3668 83.4966V79.9598C3.64324 79.5307 4.02413 79.1936 4.5033 78.9484C4.98862 78.6971 5.48008 78.5745 5.98996 78.5745C6.83159 78.5745 7.50735 78.8504 8.02338 79.4082C8.53941 79.9659 8.79743 80.7321 8.79743 81.719C8.80972 82.712 8.5517 83.4965 8.02952 84.0666Z" fill="white"/>
<path d="M16.2123 84.2627L13.2942 76.9257H10.9844L15.2478 86.7329C14.7748 87.7137 14.0376 88.2102 13.0424 88.2102C12.6983 88.2102 12.2376 88.1305 11.6601 87.9772V89.7916C12.0717 89.9326 12.5693 90.0061 13.1468 90.0061C13.5584 90.0061 13.9208 89.9755 14.2342 89.908C14.5475 89.8406 14.8915 89.7119 15.2785 89.5096C15.6655 89.3074 16.0218 88.9764 16.3597 88.5228C16.6915 88.0692 16.9986 87.4869 17.2751 86.7881L21.1945 76.9257H19.0013L16.2123 84.2627Z" fill="white"/>
<path d="M31.3616 76.7112C30.0715 76.7112 29.0578 77.0912 28.3268 77.8451V76.9196H26.3057V89.7119H28.3268V85.5745C28.9964 86.3774 29.9732 86.782 31.2633 86.782C32.6639 86.782 33.782 86.3284 34.6113 85.4151C35.4407 84.5018 35.8523 83.2759 35.8523 81.7374C35.8523 80.1989 35.4407 78.9729 34.6175 78.0658C33.7881 77.1647 32.7069 76.7112 31.3616 76.7112ZM32.9649 84.0543C32.4489 84.6305 31.7486 84.9186 30.8762 84.9186C29.6783 84.9186 28.8183 84.4466 28.2899 83.4965V79.9598C28.5787 79.5185 28.9595 79.1814 29.4449 78.9362C29.924 78.691 30.4216 78.5745 30.9254 78.5745C31.767 78.5745 32.4428 78.8565 32.9588 79.4204C33.4748 79.9843 33.7328 80.7505 33.7328 81.719C33.739 82.7058 33.481 83.4843 32.9649 84.0543Z" fill="white"/>
<path d="M39.7284 78.2558V76.9257H37.7441V86.592H39.7776V81.9397C39.7776 80.9589 40.011 80.1989 40.484 79.6595C40.9571 79.1201 41.553 78.8504 42.2779 78.8504C42.671 78.8504 43.0703 78.9301 43.4881 79.0833V76.846C43.2915 76.7602 43.0273 76.7234 42.6956 76.7234C41.4178 76.7112 40.4287 77.226 39.7284 78.2558Z" fill="white"/>
<path d="M46.1599 72.9967C45.7914 72.9967 45.478 73.1254 45.22 73.389C44.962 73.6525 44.833 73.9651 44.833 74.3329C44.833 74.7129 44.962 75.0317 45.22 75.2952C45.478 75.5588 45.7914 75.6875 46.1599 75.6875C46.5285 75.6875 46.8357 75.5588 47.0937 75.2952C47.3456 75.0317 47.4746 74.7129 47.4746 74.3329C47.4746 73.9651 47.3456 73.6525 47.0937 73.389C46.8418 73.1254 46.5285 72.9967 46.1599 72.9967Z" fill="white"/>
<path d="M47.1796 76.9257H45.1094V86.592H47.1796V76.9257Z" fill="white"/>
<path d="M60.843 76.7112C59.4976 76.7112 58.3427 77.1402 57.3721 77.9922C56.8929 77.1402 56.0021 76.7112 54.7182 76.7112C53.5325 76.7112 52.4882 77.1096 51.579 77.9003V76.9257H49.5947V86.592H51.6281V79.733C52.3408 78.9607 53.1394 78.5807 54.024 78.5807C54.6445 78.5807 55.1175 78.7768 55.4492 79.1691C55.7748 79.5614 55.9407 80.2173 55.9407 81.1428V86.5981H57.9618V80.9283C57.9618 80.4931 57.9311 80.0518 57.8758 79.6166C58.5454 78.93 59.3195 78.5868 60.2041 78.5868C60.8614 78.5868 61.3775 78.7891 61.7583 79.1936C62.1392 79.5982 62.3297 80.3092 62.3297 81.3267V86.6042H64.3631V80.9528C64.3631 79.4265 64.0559 78.3355 63.4477 77.6919C62.8396 77.036 61.9734 76.7112 60.843 76.7112Z" fill="white"/>
<path d="M70.8871 76.6744C69.4495 76.6744 68.2823 77.1341 67.3854 78.0597C66.4885 78.9852 66.04 80.205 66.04 81.719C66.04 83.2575 66.4824 84.4895 67.3793 85.4028C68.27 86.3223 69.4864 86.782 71.0284 86.782C72.9819 86.782 74.4317 86.1261 75.3778 84.8083L74.0508 83.6682C73.3628 84.557 72.3983 84.9983 71.1696 84.9983C70.328 84.9983 69.6461 84.7654 69.1178 84.3056C68.5895 83.8459 68.2639 83.1962 68.1349 82.3687H75.7095C75.7218 82.2523 75.7279 82.05 75.7279 81.7619C75.7279 80.2234 75.3163 78.9852 74.487 78.0597C73.6454 77.1402 72.4536 76.6744 70.8871 76.6744ZM68.141 80.7934C68.2823 80.0334 68.5956 79.4511 69.0932 79.0465C69.5908 78.6358 70.1867 78.4336 70.8871 78.4336C71.741 78.4336 72.3983 78.6542 72.859 79.0894C73.3259 79.5307 73.5901 80.0947 73.6638 80.7934H68.141Z" fill="white"/>
<path d="M83.5846 73.1376H81.5635V76.9196H80.1689V78.7645H81.5635V83.564C81.5635 84.6796 81.7846 85.4948 82.2331 86.0158C82.6815 86.5368 83.4187 86.8004 84.4446 86.8004C85.317 86.8004 86.0173 86.7146 86.5333 86.5368V84.7041C86.0357 84.9063 85.5074 85.0044 84.9484 85.0044C84.4201 85.0044 84.0576 84.8696 83.8672 84.606C83.6767 84.3424 83.5846 83.895 83.5846 83.2636V78.7707H86.5518V76.9257H83.5846V73.1376Z" fill="white"/>
<path d="M90.2812 76.9257H88.2109V86.592H90.2812V76.9257Z" fill="white"/>
<path d="M89.2615 72.9967C88.8929 72.9967 88.5796 73.1254 88.3216 73.389C88.0636 73.6525 87.9346 73.9651 87.9346 74.3329C87.9346 74.7129 88.0636 75.0317 88.3216 75.2952C88.5796 75.5588 88.8929 75.6875 89.2615 75.6875C89.6301 75.6875 89.9373 75.5588 90.1953 75.2952C90.4472 75.0317 90.5762 74.7129 90.5762 74.3329C90.5762 73.9651 90.4472 73.6525 90.1953 73.389C89.9434 73.1254 89.6301 72.9967 89.2615 72.9967Z" fill="white"/>
<path d="M103.944 76.7112C102.598 76.7112 101.443 77.1402 100.479 77.9922C99.9935 77.1402 99.1089 76.7112 97.8188 76.7112C96.6331 76.7112 95.5888 77.1096 94.6796 77.9003V76.9257H92.6953V86.592H94.7287V79.733C95.4413 78.9607 96.24 78.5807 97.1246 78.5807C97.7451 78.5807 98.2181 78.7768 98.5498 79.1691C98.8754 79.5614 99.0413 80.2173 99.0413 81.1428V86.5981H101.062V80.9283C101.062 80.4931 101.038 80.0518 100.976 79.6166C101.646 78.93 102.42 78.5868 103.305 78.5868C103.962 78.5868 104.478 78.7891 104.859 79.1936C105.24 79.5982 105.43 80.3092 105.43 81.3267V86.6042H107.464V80.9528C107.464 79.4265 107.157 78.3355 106.548 77.6919C105.94 77.036 105.068 76.7112 103.944 76.7112Z" fill="white"/>
<path d="M113.982 76.6744C112.544 76.6744 111.377 77.1341 110.48 78.0597C109.583 78.9852 109.135 80.205 109.135 81.719C109.135 83.2575 109.577 84.4895 110.474 85.4028C111.365 86.3223 112.581 86.782 114.123 86.782C116.077 86.782 117.526 86.1261 118.473 84.8083L117.146 83.6682C116.458 84.557 115.493 84.9983 114.264 84.9983C113.423 84.9983 112.741 84.7654 112.213 84.3056C111.684 83.8459 111.359 83.1962 111.23 82.3687H118.804C118.817 82.2523 118.823 82.05 118.823 81.7619C118.823 80.2234 118.411 78.9852 117.582 78.0597C116.746 77.1402 115.548 76.6744 113.982 76.6744ZM111.242 80.7934C111.377 80.0334 111.697 79.4511 112.194 79.0465C112.692 78.6358 113.288 78.4336 113.988 78.4336C114.842 78.4336 115.499 78.6542 115.966 79.0894C116.433 79.5307 116.697 80.0947 116.771 80.7934H111.242Z" fill="white"/>
<path d="M128.86 84.8818C127.951 84.8818 127.226 84.5999 126.686 84.0298C126.145 83.4598 125.875 82.6936 125.875 81.719C125.875 80.7812 126.145 80.0334 126.698 79.4694C127.245 78.9055 127.976 78.6236 128.897 78.6236C129.413 78.6236 129.899 78.74 130.347 78.9791C130.795 79.2181 131.152 79.5246 131.416 79.9047L132.829 78.5868C132.405 78.0045 131.84 77.5509 131.146 77.2199C130.451 76.8889 129.677 76.7234 128.823 76.7234C127.282 76.7234 126.053 77.1831 125.138 78.1026C124.222 79.022 123.768 80.2295 123.768 81.7374C123.768 83.2759 124.21 84.5018 125.107 85.4028C125.998 86.31 127.226 86.7636 128.793 86.7636C129.677 86.7636 130.476 86.5981 131.182 86.2671C131.889 85.9361 132.46 85.4764 132.896 84.9002L131.483 83.5824C130.845 84.4528 129.972 84.8818 128.86 84.8818Z" fill="white"/>
<path d="M141.571 77.8451C140.846 77.0851 139.839 76.7112 138.555 76.7112C137.209 76.7112 136.122 77.1647 135.293 78.0719C134.463 78.9791 134.052 80.1989 134.052 81.7435C134.052 83.282 134.469 84.5079 135.305 85.4212C136.14 86.3345 137.252 86.7881 138.641 86.7881C139.949 86.7881 140.938 86.3836 141.608 85.5806V86.592H143.611V76.9257H141.577V77.8451H141.571ZM141.608 83.4965C141.344 83.9685 140.981 84.324 140.521 84.5631C140.06 84.8021 139.568 84.9186 139.04 84.9186C138.168 84.9186 137.467 84.6366 136.951 84.0666C136.435 83.4965 136.177 82.7181 136.177 81.719C136.177 80.7383 136.435 79.9659 136.945 79.4081C137.455 78.8504 138.131 78.5745 138.972 78.5745C139.489 78.5745 139.992 78.6971 140.471 78.9362C140.951 79.1814 141.332 79.5185 141.608 79.9598V83.4965Z" fill="white"/>
<path d="M147.173 73.7322C146.676 74.2838 146.424 75.0929 146.424 76.1595V76.9257H145.029V78.7707H146.424V86.5858H148.457V78.7707H151.117V76.9257H148.445V76.3924C148.445 75.7549 148.556 75.3013 148.783 75.0439C149.004 74.7803 149.373 74.6516 149.876 74.6516C150.282 74.6516 150.73 74.7313 151.222 74.8845V73.248C150.712 73.0212 150.091 72.9108 149.342 72.9108C148.396 72.9108 147.671 73.1867 147.173 73.7322Z" fill="white"/>
<path d="M156.524 76.6744C155.086 76.6744 153.919 77.1341 153.022 78.0597C152.125 78.9852 151.677 80.205 151.677 81.719C151.677 83.2575 152.119 84.4895 153.016 85.4028C153.907 86.3223 155.123 86.782 156.665 86.782C158.619 86.782 160.068 86.1261 161.014 84.8083L159.688 83.6682C159 84.557 158.035 84.9983 156.806 84.9983C155.965 84.9983 155.283 84.7654 154.755 84.3056C154.226 83.8459 153.901 83.1962 153.772 82.3687H161.346C161.359 82.2523 161.365 82.05 161.365 81.7619C161.365 80.2234 160.953 78.9852 160.124 78.0597C159.282 77.1402 158.09 76.6744 156.524 76.6744ZM153.778 80.7934C153.913 80.0334 154.232 79.4511 154.73 79.0465C155.228 78.6358 155.823 78.4336 156.524 78.4336C157.378 78.4336 158.035 78.6542 158.502 79.0894C158.969 79.5307 159.233 80.0947 159.307 80.7934H153.778Z" fill="white"/>
<path d="M7.48248 60.5721C3.28664 60.5721 0 62.5703 0 65.1263C0 67.6824 3.28664 69.6806 7.48248 69.6806C11.2913 69.6806 14.3383 68.0317 14.8667 65.8129H144.268V65.7209V64.5256V64.4827H14.8789C14.3813 62.2455 11.3159 60.5721 7.48248 60.5721ZM7.48248 68.3137C4.18355 68.3137 1.39452 66.8549 1.39452 65.1263C1.39452 63.3978 4.18355 61.939 7.48248 61.939C10.7814 61.939 13.5704 63.3978 13.5704 65.1263C13.5704 66.8549 10.7814 68.3137 7.48248 68.3137Z" fill="white"/>
<path d="M151.345 56.8515H161.592C161.972 56.8515 162.286 56.545 162.286 56.1711C162.286 55.7972 161.972 55.4907 161.592 55.4907H151.345C149.213 55.4907 147.462 57.0537 147.161 59.0704H21.3965V59.1807V60.2656V60.5108H147.204C147.603 62.4048 149.293 63.8391 151.338 63.8391H161.585C161.966 63.8391 162.28 63.5327 162.28 63.1588C162.28 62.7849 161.966 62.4784 161.585 62.4784H151.338C150.073 62.4784 149.01 61.6631 148.635 60.5414H161.585C161.966 60.5414 162.28 60.235 162.28 59.8611C162.28 59.4872 161.966 59.1807 161.585 59.1807H148.531C148.777 57.8506 149.938 56.8515 151.345 56.8515Z" fill="white"/>
<path d="M172.214 5.47981C171.931 5.3327 171.649 5.2285 171.372 5.12429C171.249 5.08139 171.126 5.03235 171.004 4.98332C170.93 4.95267 170.862 4.91589 170.795 4.87911C170.543 4.57264 170.211 4.33359 169.406 4.19261C168.571 4.07614 168.11 4.10066 167.41 4.14357L167.176 4.15583C165.714 4.24164 164.178 4.55425 162.335 5.13655C159.184 6.12954 155.922 7.37384 152.064 9.05333C151.929 9.10849 151.787 9.14527 151.646 9.18818C151.437 9.24947 151.198 9.31077 150.958 9.42723C150.289 9.7521 149.625 10.1015 148.98 10.4447C148.937 9.39045 148.329 8.58135 147.309 8.24423C146.197 7.88259 145.171 7.94388 144.262 8.42199L144.096 8.5078C143.924 8.59974 143.758 8.68556 143.58 8.75298C140.447 7.53933 137.32 6.31956 134.193 5.09365L131.091 3.88C127.903 2.62957 124.714 1.37915 121.526 0.147111C121.127 -0.00612732 120.641 -0.0490341 120.223 0.042909C119.824 0.128723 119.394 0.30035 118.958 0.56392C118.761 0.680381 118.233 0.992987 118.245 1.57529C118.258 2.16373 118.804 2.46408 119.013 2.57441L122.632 4.55425C126.741 6.80379 130.857 9.05333 134.967 11.3029C135.121 11.3887 135.274 11.5051 135.422 11.6523C136.098 12.3265 136.761 13.0069 137.425 13.6873L137.941 14.2144C138.1 14.3738 138.254 14.5393 138.414 14.6986L135.655 16.0839C135.594 16.1146 135.545 16.1207 135.526 16.1146C135.502 16.1084 135.471 16.0716 135.446 16.0226C134.943 14.9806 134.439 13.9386 133.935 12.8965L133.235 11.4438C132.903 10.7573 132.252 10.4815 131.588 10.7451C131.072 10.9474 130.606 11.1864 130.2 11.4561C129.825 11.7013 129.623 12.1794 129.586 12.541C129.487 13.485 129.408 14.4351 129.328 15.379L129.107 17.9595L128.001 17.5673C126.029 16.8746 124.051 16.1758 122.079 15.4771C121.36 15.2196 120.598 15.2564 119.824 15.569C119.664 15.6365 119.548 15.7223 119.443 15.8019C119.406 15.8265 119.37 15.8571 119.327 15.8878L118.393 16.5498L126.827 20.9814C126.778 21.2021 126.803 21.4043 126.827 21.5269C126.95 22.0541 127.337 22.4157 127.866 22.4893L128.505 22.5751C129.002 22.6425 129.5 22.7099 129.997 22.7896C130.047 22.7958 130.114 22.8203 130.157 22.8509L130.913 23.3781C132.123 24.2178 133.376 25.0882 134.586 25.977C135.158 26.3938 135.766 26.4857 136.448 26.2589C136.718 26.167 136.952 26.0689 137.167 25.9525C137.32 25.8666 137.689 25.6644 137.781 25.2353C137.873 24.8062 137.615 24.4752 137.504 24.3281C137.173 23.8929 136.841 23.4577 136.503 23.0225C137.111 22.998 137.732 22.9612 138.346 22.9061C141.878 22.569 145.183 21.5882 147.973 20.6749C150.086 21.4656 152.199 22.2686 154.306 23.0838L154.472 23.1451C154.81 23.2739 155.129 23.3964 155.363 23.5681C157.169 24.935 158.969 26.3141 160.763 27.6933L163.226 29.5811C163.49 29.7834 163.742 29.8815 163.994 29.8815C164.013 29.8815 164.037 29.8815 164.056 29.8815C164.762 29.8386 165.425 29.5995 166.028 29.1827C166.329 28.9743 166.433 28.7169 166.464 28.5391C166.494 28.3614 166.488 28.0794 166.267 27.7729C165.475 26.6512 164.688 25.5295 163.902 24.4017L163.785 24.2362C163.564 23.9236 163.349 23.611 163.134 23.2984C164.713 22.4831 164.768 21.2572 164.658 20.5891C164.498 19.639 163.767 18.5541 162.538 18.4193C161.973 18.358 161.297 18.3273 160.597 18.5725C160.351 18.6583 160.105 18.7564 159.86 18.8483L158.637 17.0033C159.073 16.8317 159.51 16.6601 159.952 16.4885C161.42 15.9184 162.937 15.33 164.406 14.6741C167.416 13.3317 169.91 11.499 171.821 9.22496C172.398 8.53845 172.773 7.8642 172.957 7.16543C173.203 6.17245 172.601 5.68208 172.214 5.47981ZM171.563 6.82218C171.427 7.3248 171.157 7.80903 170.709 8.3423C168.933 10.4509 166.605 12.1549 163.798 13.4114C162.36 14.055 160.861 14.6373 159.405 15.2013C158.736 15.4587 158.072 15.7223 157.396 15.992C157.359 16.0042 157.329 16.0226 157.218 16.0778L156.518 16.4394L159.276 20.5952L160.21 20.2397C160.492 20.1294 160.769 20.0252 161.045 19.9271C161.475 19.7739 161.948 19.7984 162.354 19.8474C162.827 19.9026 163.165 20.4052 163.238 20.8466C163.306 21.245 163.251 21.7047 162.342 22.1276C162.237 22.1767 162.127 22.2196 162.004 22.2625L160.947 22.6732L161.819 23.9358C162.084 24.322 162.342 24.6959 162.606 25.0759L162.722 25.2414C163.429 26.2528 164.129 27.2581 164.842 28.2633C164.59 28.3859 164.332 28.4594 164.062 28.4901L161.598 26.6022C159.798 25.223 157.998 23.8378 156.186 22.4709C155.793 22.1767 155.344 22.005 154.945 21.8518L154.785 21.7905C152.672 20.9753 150.559 20.1723 148.439 19.3755C148.28 19.3142 148.108 19.2835 147.93 19.2835C147.77 19.2835 147.616 19.308 147.469 19.3571C144.778 20.2459 141.571 21.2021 138.18 21.5208C137.492 21.5882 136.798 21.6189 136.067 21.6495C135.729 21.6618 135.385 21.6802 135.041 21.6986L133.702 21.7721L135.066 23.5436C135.416 23.9971 135.76 24.4446 136.104 24.8921C136.061 24.9104 136.012 24.9227 135.962 24.9411C135.717 25.0269 135.588 25.0024 135.391 24.8614C134.169 23.9665 132.909 23.09 131.693 22.2441L130.937 21.717C130.716 21.5637 130.452 21.4595 130.188 21.4166C129.684 21.3369 129.174 21.2695 128.664 21.2021L128.591 21.1898L129.414 20.7853L122.447 17.1259C124.131 17.7205 125.814 18.3151 127.497 18.9096L129.291 19.541C129.334 19.5532 129.377 19.5655 129.432 19.5839L130.329 19.8413L130.704 15.5139C130.784 14.576 130.864 13.6382 130.956 12.7004C130.956 12.682 130.974 12.6452 130.986 12.6207C131.269 12.4368 131.595 12.2713 131.957 12.1181L132.639 13.5218C133.143 14.5638 133.646 15.6119 134.156 16.654C134.347 17.0462 134.666 17.3343 135.053 17.4692C135.446 17.5979 135.876 17.5611 136.276 17.365L140.748 15.1154L139.734 14.0734C139.464 13.7915 139.194 13.5156 138.93 13.2459L138.414 12.7188C137.744 12.0323 137.074 11.3519 136.399 10.6777C136.159 10.4386 135.895 10.2363 135.625 10.0892C131.515 7.83355 127.399 5.58401 123.289 3.3406L120.07 1.58142C120.217 1.514 120.359 1.47109 120.494 1.44044C120.647 1.4098 120.85 1.42818 120.991 1.48335C124.18 2.72152 127.368 3.96581 130.556 5.21624L133.659 6.42989C136.81 7.66192 139.962 8.89396 143.113 10.1137C143.396 10.2241 143.752 10.2179 144.072 10.0953C144.317 10.0034 144.532 9.88695 144.747 9.77661L144.901 9.6908C145.485 9.38432 146.105 9.35981 146.854 9.60499C147.364 9.77048 147.592 10.1321 147.549 10.7022C147.542 10.8064 147.524 10.9106 147.512 11.0086L147.438 11.5664L147.733 11.8116C147.979 12.02 148.495 12.3081 149.183 11.9403L149.428 11.8116C150.123 11.4438 150.841 11.0577 151.554 10.7144C151.677 10.6531 151.837 10.6102 152.002 10.5612C152.187 10.5122 152.396 10.4509 152.605 10.3589C156.413 8.70394 159.632 7.47191 162.735 6.49731C164.467 5.95178 165.899 5.65757 167.238 5.57788L167.477 5.56562C168.153 5.52272 168.491 5.4982 169.161 5.59627C169.591 5.67595 169.652 5.74951 169.677 5.78016C169.738 5.85371 169.836 5.98243 170.021 6.08663C170.162 6.16632 170.303 6.23987 170.451 6.30117C170.586 6.35633 170.727 6.40537 170.868 6.46053C171.108 6.54635 171.341 6.63216 171.538 6.73636C171.55 6.74249 171.556 6.74862 171.563 6.74862C171.581 6.76088 171.575 6.79153 171.563 6.82218Z" fill="white"/>
</g>
<defs>
<filter id="filter0_d_358:445" x="-4" y="-4.00513" width="181.015" height="98.0112" filterUnits="userSpaceOnUse" color-interpolation-filters="sRGB">
<feFlood flood-opacity="0" result="BackgroundImageFix"/>
<feColorMatrix in="SourceAlpha" type="matrix" values="0 0 0 0 0 0 0 0 0 0 0 0 0 0 0 0 0 0 127 0" result="hardAlpha"/>
<feOffset/>
<feGaussianBlur stdDeviation="2"/>
<feComposite in2="hardAlpha" operator="out"/>
<feColorMatrix type="matrix" values="0 0 0 0 0 0 0 0 0 0 0 0 0 0 0 0 0 0 0.12 0"/>
<feBlend mode="normal" in2="BackgroundImageFix" result="effect1_dropShadow_358:445"/>
<feBlend mode="normal" in="SourceGraphic" in2="effect1_dropShadow_358:445" result="shape"/>
</filter>
</defs>
</svg>
