<svg width="18" height="20" viewBox="0 0 18 20" fill="none" xmlns="http://www.w3.org/2000/svg">
<path d="M9.32892 0C9.51794 0.0265198 9.70902 0.0469196 9.89598 0.0795593C11.0691 0.287637 12.0533 0.836392 12.8463 1.71766C13.5531 2.50102 13.9887 3.41901 14.1058 4.46552C14.3133 6.33414 13.6867 7.89269 12.2279 9.09424C11.1945 9.94287 9.98228 10.3101 8.64681 10.2142C7.06068 10.0999 5.78684 9.39003 4.83969 8.12321C4.15346 7.20725 3.83089 6.16482 3.84938 5.02447C3.89048 2.63974 5.59166 0.601794 7.94209 0.110159C8.15165 0.0652794 8.36738 0.0489595 8.58106 0.0203998C8.61188 0.0163198 8.64064 0.00815992 8.66941 0.00203998C8.88925 0 9.10908 0 9.32892 0Z" fill="#898989"/>
<path d="M8.99977 19.9941C6.44772 19.9941 3.89334 19.9844 1.34129 20C0.526306 20.0039 0.202643 19.631 0.0582747 19.1338C-0.0302089 18.8328 -0.00226671 18.5298 0.0396465 18.2269C0.191 17.1762 0.575205 16.1877 1.23185 15.2827C2.59868 13.4028 4.57094 12.2026 7.15093 11.7443C11.7381 10.9286 16.2997 13.2047 17.6432 16.9548C17.8388 17.5025 17.9622 18.0599 17.9971 18.6308C18.0158 18.9435 17.9436 19.2445 17.7666 19.5203C17.5594 19.8446 17.2241 19.9941 16.7863 19.9941C14.8606 19.9941 12.9373 19.9941 11.0116 19.9941C10.341 19.9941 9.67038 19.9941 8.99977 19.9941Z" fill="#898989"/>
</svg>
